<?xml version="1.0" standalone="no"?>
<!DOCTYPE svg PUBLIC "-//W3C//DTD SVG 20010904//EN"
 "http://www.w3.org/TR/2001/REC-SVG-20010904/DTD/svg10.dtd">
<svg version="1.0" xmlns="http://www.w3.org/2000/svg"
 width="528.000000pt" height="528.000000pt" viewBox="0 0 528.000000 528.000000"
 preserveAspectRatio="xMidYMid meet">
<metadata>
Created by potrace 1.11, written by Peter Selinger 2001-2013
</metadata>
<g transform="translate(0.000000,528.000000) scale(0.100000,-0.100000)"
fill="#000000" stroke="none">
<path d="M1240 4340 l0 -400 -400 0 -400 0 0 -400 0 -400 400 0 400 0 0 -400
0 -400 400 0 400 0 0 400 0 400 600 0 601 0 -3 -657 -3 -658 -28 -78 c-64
-181 -207 -321 -387 -378 -84 -27 -242 -34 -320 -13 -209 55 -369 207 -432
408 -21 71 -25 87 -27 144 l-1 32 -401 0 -401 0 6 -93 c4 -51 9 -104 11 -117
3 -14 8 -43 11 -65 11 -75 83 -275 134 -373 163 -311 441 -554 771 -670 155
-55 268 -75 439 -77 254 -4 445 38 659 145 217 109 405 276 539 479 65 99 146
274 176 381 55 198 54 182 55 1328 l1 1062 -1000 0 -1000 0 0 400 0 400 -400
0 -400 0 0 -400z"/>
</g>
</svg>
